<?xml version="1.0" encoding="UTF-8" standalone="no"?>
<svg
   width="79.943123"
   height="44.310425"
   viewBox="0 0 79.943123 44.310424"
   version="1.1"
   xml:space="preserve"
   style="clip-rule:evenodd;fill-rule:evenodd"
   id="svg25"
   sodipodi:docname="TortoiseSVN_logo.svg"
   inkscape:version="1.1 (c68e22c387, 2021-05-23)"
   xmlns:inkscape="http://www.inkscape.org/namespaces/inkscape"
   xmlns:sodipodi="http://sodipodi.sourceforge.net/DTD/sodipodi-0.dtd"
   xmlns="http://www.w3.org/2000/svg"
   xmlns:svg="http://www.w3.org/2000/svg"><defs
   id="defs29" /><sodipodi:namedview
   id="namedview27"
   pagecolor="#505050"
   bordercolor="#ffffff"
   borderopacity="1"
   inkscape:pageshadow="0"
   inkscape:pageopacity="0"
   inkscape:pagecheckerboard="1"
   showgrid="false"
   inkscape:zoom="6.3941793"
   inkscape:cx="57.00497"
   inkscape:cy="9.9309071"
   inkscape:window-width="1920"
   inkscape:window-height="1017"
   inkscape:window-x="-8"
   inkscape:window-y="-8"
   inkscape:window-maximized="1"
   inkscape:current-layer="svg25" />
    <path
   id="path5328"
   d="m 24.253605,32.248 2.254,0.662 2.917,0.664 0.839,0.044 -0.442,1.104 -0.486,1.459 -0.442,0.84 -1.149,0.795 -1.414,0.354 -1.193,-0.354 -0.795,-0.752 -0.663,-1.9 -0.177,-1.325 0.265,-1.061 z"
   style="fill:#343434;fill-rule:nonzero;stroke:#000000;stroke-width:1px" />
    <path
   id="path3580"
   d="M 11.404605,25.687 C 6.0296053,22.499 1.5296053,18.812 1.5296053,18.812 c -3.25,-3.563 2.25,-1.375 2.25,-1.375 l 9.4379997,3.313 -0.125,0.875 -2.75,1.188 z"
   style="fill:#343434;fill-rule:nonzero;stroke:#000000;stroke-width:1px" />
    <path
   id="path3584"
   d="m 19.279605,10 c 3.063,-3.125 7.188,-5 13.438,-5.688 5.938,0.063 8.688,-0.25 15.5,3.688 1.813,1.375 5.875,3 4.688,5.813 -1.875,3.688 -1.938,3.438 -2.875,6.813 -0.937,3.375 -0.188,3.063 -1.313,4.625 -2,2.125 -0.563,2 -3.125,3.125 -3.938,-1.625 -3.188,-1.313 -5.375,-1.625 -3.75,-0.313 -3.75,-0.438 -8.438,1.813 -3.125,0.5 -0.688,0.75 -3.875,0.375 -7.625,-3.75 -5.625,-4.938 -9.5,-5.875 -3.875,-0.937 -4.625,-0.125 -5,-1.875 0.125,-3.502 3.25,-8.439 5.875,-11.189 z"
   style="fill:#ffffff;fill-opacity:0.56;fill-rule:nonzero;stroke:#000000;stroke-width:1px" />
    <path
   id="path3590"
   d="m 12.529605,26.187 c 5.297,0.189 6.639,3.826 9.188,5 3.074,0.762 5.028,2.375 8.563,2.5 3.898,-1.875 9.679,-1.688 15.063,-0.188 2.854,0.063 4.196,-1.97 6.75,-7.5 1.365,-4.211 1.595,-8.071 3.688,-10.125 1.218,-0.992 2.096,-2.313 -0.375,-3.313 -2.751,-0.563 -3.917,2.585 -5.375,7.313 -0.866,4.17 -2.55,9.244 -5.5,7.5 -5.193,-1.747 -3.086,-1.188 -5.563,-1.313 -4.637,0.313 -8.396,3.891 -14.438,0.625 -4.475,-3.277 -5.971,-4.108 -11.313,-5.438 -1.184,-0.313 -6.3179997,0.274 -0.688,4.939 z"
   style="fill:#343434;fill-rule:nonzero;stroke:#000000;stroke-width:1px" />
    <path
   id="path3593"
   d="m 11.998605,26.125 c -0.369,0.369 -2.5369997,2.323 -3.7189997,4.5 -1.201,2.213 -1.463,4.51 -0.063,7.563 1.099,2.885 4.2409997,3.217 7.9379997,4.313 1.572,-0.264 2.72,0.717 4.125,-0.875 1.145,-1.27 1.986,-0.889 0.938,-3.25 -2.196,-3.509 -2.688,-5.781 -0.688,-7.75 -0.563,-1.44 -1.227,-2.164 -4.25,-3.938 -1.083,-0.397 -2.458,-0.807 -4.281,-0.563"
   style="fill:#343434;fill-rule:nonzero;stroke:#000000;stroke-width:1px" />
    <path
   id="path3601"
   d="m 29.404605,39.25 c 0.225,2.339 3.31,3.582 8.125,4.375 3.634,-0.247 6.751,1.433 9.125,-2.125 0.429,-2.651 -0.181,-6.563 -2.188,-8.188 -2.137,-1.875 -9.244,-2.015 -12.375,-0.813 -2.713,1.486 -3.104,4.644 -2.687,6.751 z"
   style="fill:#343434;fill-rule:nonzero;stroke:#000000;stroke-width:1px" />
    <path
   id="path3604"
   d="m 19.467605,34.812 c -4.354,-0.625 -7.48,-0.911 -9,5.688 5.003,2.233 8.318,2.48 9.563,1.563 3.447,-2.43 -0.107,-5.032 -0.563,-7.251 z"
   style="fill:none;fill-rule:nonzero;stroke:#000000;stroke-width:1px" />
    <path
   id="path3606"
   d="m 45.717605,35.562 c -3.938,0.211 -7.545,1.59 -9.813,7.313 0.628,0.744 0.848,0.736 1.938,0.813 2.557,-0.127 5.253,0.404 7.125,-0.438 3.194,-2.099 1.235,-7.48 0.688,-7.563"
   style="fill:#343434;fill-rule:nonzero;stroke:#000000;stroke-width:1px" />
    <path
   id="path3608"
   d="m 14.779605,34.75 c 0.983,1.576 2.17,2.91 1.313,7.438"
   style="fill:none;fill-rule:nonzero;stroke:#000000;stroke-width:1px" />
    <path
   id="path3610"
   d="m 17.279605,34.562 c 1.117,2.08 2.188,4.099 1.563,7.813"
   style="fill:none;fill-rule:nonzero;stroke:#000000;stroke-width:1px" />
    <path
   id="path3612"
   d="m 38.904605,37.875 c 1.378,0.453 3.222,2.262 3.688,5.938"
   style="fill:none;fill-rule:nonzero;stroke:#000000;stroke-width:1px" />
    <path
   id="path3614"
   d="m 41.717605,36.125 c 1.583,1.52 3.337,2.661 3.438,6.813"
   style="fill:none;fill-rule:nonzero;stroke:#000000;stroke-width:1px" />
    <path
   id="path3616"
   d="m 48.029605,32.812 c -0.387,3.142 0.974,7.86 4.625,7.875 5.565,0.573 6.946,-1.42 8.25,-3.375 1.022,-3.738 -2.875,-7.688 -5.625,-10.188 -1.096,-0.979 -1.259,-0.938 -2.625,-1 -2.085,0.75 -2.548,6.109 -4.688,6.688"
   style="fill:#343434;fill-rule:nonzero;stroke:#000000;stroke-width:1px" />
    <path
   id="path3618"
   d="m 52.154605,40.437 c 4.226,1.352 5.138,0.112 8,-1.938 1.905,-1.906 0.685,-6.129 -2,-8.375 -2.573,0.677 -8.649,5.29 -6,10.313 z"
   style="fill:#343434;fill-rule:nonzero;stroke:#000000;stroke-width:1px" />
    <path
   id="path3620"
   d="m 52.904605,34 c -0.021,-0.021 3.093,1.557 3.938,6.188"
   style="fill:none;fill-rule:nonzero;stroke:#000000;stroke-width:1px" />
    <path
   id="path3622"
   d="m 55.279605,32.125 c 1.093,0.982 3.503,2.541 4.375,6.563"
   style="fill:none;fill-rule:nonzero;stroke:#000000;stroke-width:1px" />
    <path
   id="path3624"
   d="m 63.217605,10.687 c 0.927,-5.541 0.935,-5.607 2.688,-7.313 4.095,-2.618 -0.835,12.554 7.625,7.188 0.415,0.699 2.976,0.388 3.813,1.375 2.112,1.882 2.438,2.721 1.875,3.563 -2.125,3.585 -2.967,1.967 -5.813,2.938 -0.595,1.72 -2.022,2.115 -6.875,2.188 -3.147,0.271 -3.613,2.325 -5,3.625 -1.526,1.194 -3.143,3.587 -9.313,1.563 1.45,-4.123 0.669,-8.002 4.063,-10.375 5.133,0.758 5.674,-2.228 6.937,-4.752 z"
   style="fill:#343434;fill-rule:nonzero;stroke:#000000;stroke-width:1px" />
    <path
   id="path3626"
   d="m 67.654605,14.625 c 1.182,2.098 2.757,3.438 6.25,3.563"
   style="fill:none;fill-rule:nonzero;stroke:#000000;stroke-width:1px" />
    <path
   id="path3628"
   d="m 78.154605,5.875 c 0,2.969 -1.511,5.375 -3.375,5.375 -1.864,0 -3.375,-2.406 -3.375,-5.375 0,-2.969 1.511,-5.375 3.375,-5.375 1.864,0 3.375,2.406 3.375,5.375 z"
   style="fill:#343434;fill-rule:nonzero;stroke:#000000;stroke-width:1px" />
    <path
   id="path5148"
   d="m 74.217605,6.562 c 0,2.969 -1.511,5.375 -3.375,5.375 -1.864,0 -3.375,-2.406 -3.375,-5.375 0,-2.969 1.511,-5.375 3.375,-5.375 1.864,0 3.375,2.406 3.375,5.375 z"
   style="fill:#343434;fill-rule:nonzero;stroke:#000000;stroke-width:1px" />
    <path
   id="path5150"
   d="m 73.467605,7.281 c 0,1.226 -0.644,2.219 -1.438,2.219 -0.794,0 -1.438,-0.993 -1.438,-2.219 0,-1.226 0.644,-2.219 1.438,-2.219 0.794,0 1.438,0.993 1.438,2.219 z"
   style="fill:#ffffff;fill-rule:nonzero" />
    <path
   id="path5912"
   d="m 77.467605,6.343 c 0,1.174 -0.587,2.125 -1.313,2.125 -0.726,0 -1.313,-0.951 -1.313,-2.125 0,-1.174 0.587,-2.125 1.313,-2.125 0.726,0 1.313,0.952 1.313,2.125 z"
   style="fill:#ffffff;fill-rule:nonzero" />
    <path
   id="path3809"
   d="m 13.426605,20.404 c 1.37,-4.331 4.11,-8.397 4.11,-8.397 l 3.093,-3.358 3.359,-2.033 4.552,-1.635 4.508,-0.751 4.199,0.089 5.083,0.839 4.109,1.812 3.801,2.387 1.945,1.547 0.618,0.884 0.177,0.972 -0.397,0.972 -1.326,2.475 -1.503,4.994 -1.193,3.889 -1.369,1.9 -0.885,0.531 -1.104,0.221 -1.415,-0.53 -2.696,-0.973 -1.37,-0.132 -2.828,0.309 -3.934,1.149 -3.005,0.574 -1.989,-0.044 -2.298,-0.795 -1.326,-0.708 -1.768,-1.414 -2.254,-1.414 -3.05,-1.414 -3.182,-1.061 -0.795,-0.486 z"
   style="fill:#343434;fill-rule:nonzero;stroke:#000000;stroke-width:1px" />
</svg>
